<svg xmlns="http://www.w3.org/2000/svg" version="1.1" xmlns:xlink="http://www.w3.org/1999/xlink" width="1000" height="1000"><g clip-path="url(#SvgjsClipPath1003)"><rect width="1000" height="1000" fill="#ffffff"></rect><g transform="matrix(3.5,0,0,3.5,150,150)"><svg xmlns="http://www.w3.org/2000/svg" version="1.1" xmlns:xlink="http://www.w3.org/1999/xlink" width="200" height="200"><svg xmlns="http://www.w3.org/2000/svg" version="1.1" xmlns:xlink="http://www.w3.org/1999/xlink" viewBox="0 0 200 200"><rect width="200" height="200" fill="url('#gradient')"></rect><defs><linearGradient id="gradient" gradientTransform="rotate(356 0.5 0.5)"><stop offset="0%" stop-color="#18eedb"></stop><stop offset="100%" stop-color="#18eedb"></stop></linearGradient><clipPath id="SvgjsClipPath1003"><rect width="1000" height="1000" x="0" y="0" rx="350" ry="350"></rect></clipPath></defs><g><g fill="#25407e" transform="matrix(4.241741901221455,0,0,4.241741901221455,20.551707407131005,122.39959949781081)" stroke="#c8512e" stroke-width="0"><path d="M6.46-2.97L6.46-2.97Q6.46-3.39 6.02-3.64Q5.58-3.90 4.35-4.17Q3.12-4.44 2.31-4.89Q1.51-5.33 1.09-5.97Q0.67-6.60 0.67-7.42L0.67-7.42Q0.67-8.88 1.88-9.82Q3.08-10.76 5.02-10.76L5.02-10.76Q7.11-10.76 8.38-9.81Q9.65-8.87 9.65-7.32L9.65-7.32L6.35-7.32Q6.35-8.59 5.01-8.59L5.01-8.59Q4.49-8.59 4.14-8.31Q3.79-8.02 3.79-7.59L3.79-7.59Q3.79-7.15 4.22-6.88Q4.65-6.60 5.59-6.43Q6.53-6.25 7.25-6.01L7.25-6.01Q9.63-5.19 9.63-3.07L9.63-3.07Q9.63-1.62 8.34-0.71Q7.06 0.20 5.02 0.20L5.02 0.20Q3.66 0.20 2.60-0.29Q1.53-0.78 0.94-1.62Q0.34-2.46 0.34-3.39L0.34-3.39L3.42-3.39Q3.44-2.66 3.91-2.32Q4.38-1.98 5.11-1.98L5.11-1.98Q5.78-1.98 6.12-2.26Q6.46-2.53 6.46-2.97ZM11.19-10.57L14.28-10.57L14.38-9.33Q15.51-10.76 17.40-10.76L17.40-10.76Q19.40-10.76 20.11-9.17L20.11-9.17Q21.18-10.76 23.21-10.76L23.21-10.76Q26.43-10.76 26.51-6.88L26.51-6.88L26.51 0L23.21 0L23.21-6.67Q23.21-7.48 22.94-7.85Q22.67-8.22 21.94-8.22L21.94-8.22Q20.97-8.22 20.49-7.35L20.49-7.35L20.50-7.22L20.50 0L17.20 0L17.20-6.65Q17.20-7.48 16.93-7.85Q16.67-8.22 15.93-8.22L15.93-8.22Q14.98-8.22 14.48-7.35L14.48-7.35L14.48 0L11.19 0L11.19-10.57ZM33.93-2.97L33.93-2.97Q33.93-3.39 33.49-3.64Q33.05-3.90 31.82-4.17Q30.59-4.44 29.79-4.89Q28.98-5.33 28.56-5.97Q28.14-6.60 28.14-7.42L28.14-7.42Q28.14-8.88 29.35-9.82Q30.55-10.76 32.49-10.76L32.49-10.76Q34.58-10.76 35.85-9.81Q37.12-8.87 37.12-7.32L37.12-7.32L33.82-7.32Q33.82-8.59 32.48-8.59L32.48-8.59Q31.96-8.59 31.61-8.31Q31.26-8.02 31.26-7.59L31.26-7.59Q31.26-7.15 31.69-6.88Q32.12-6.60 33.06-6.43Q34.00-6.25 34.72-6.01L34.72-6.01Q37.10-5.19 37.10-3.07L37.10-3.07Q37.10-1.62 35.82-0.71Q34.53 0.20 32.49 0.20L32.49 0.20Q31.13 0.20 30.07-0.29Q29.00-0.78 28.41-1.62Q27.81-2.46 27.81-3.39L27.81-3.39L30.89-3.39Q30.91-2.66 31.38-2.32Q31.85-1.98 32.58-1.98L32.58-1.98Q33.25-1.98 33.59-2.26Q33.93-2.53 33.93-2.97Z"></path></g></g></svg></svg></g></g></svg>